<svg version="1.1" id="Layer_1" xmlns="http://www.w3.org/2000/svg" xmlns:xlink="http://www.w3.org/1999/xlink" x="0px" y="0px"
	 width="100%" viewBox="0 0 612 393" enable-background="new 0 0 612 393" xml:space="preserve">
<path fill="#FFFFFF" opacity="1.000000" stroke="none" 
	d="
M334.000000,394.000000 
	C222.666687,394.000000 111.833389,394.000000 1.000059,394.000000 
	C1.000040,263.000061 1.000040,132.000122 1.000020,1.000130 
	C204.999893,1.000087 408.999786,1.000087 612.999756,1.000043 
	C612.999878,131.999863 612.999878,262.999725 612.999939,393.999786 
	C520.166687,394.000000 427.333344,394.000000 334.000000,394.000000 
M413.360443,206.057846 
	C412.902710,206.706619 412.444977,207.355392 412.001221,208.001221 
	C412.001221,208.001221 412.003723,207.987152 411.297974,208.003494 
	C406.760895,211.340530 402.223816,214.677551 397.686737,218.014587 
	C397.994354,218.380539 398.302002,218.746490 398.609650,219.112442 
	C403.029877,216.327911 407.450104,213.543396 412.169067,211.302032 
	C412.769592,211.853149 413.370117,212.404266 413.759247,213.596344 
	C409.616577,218.791840 405.723083,224.213806 401.263458,229.121323 
	C396.481476,234.383560 394.441010,240.167847 394.878784,247.280548 
	C395.317902,254.415756 394.952148,261.599792 394.960510,268.762421 
	C394.968689,275.792572 397.074463,277.866638 404.262573,277.872650 
	C427.916382,277.892487 451.570160,277.888336 475.223969,277.914368 
	C476.985748,277.916290 478.747345,278.084351 480.921539,278.196442 
	C480.921539,286.502502 480.890289,294.302124 480.931702,302.101379 
	C480.963196,308.034607 482.846191,310.000244 488.616211,310.024750 
	C498.943665,310.068573 509.271729,310.062286 519.599121,310.002472 
	C525.021240,309.971069 527.064026,307.882263 527.118896,302.411041 
	C527.177307,296.581421 527.128906,290.750824 527.145569,284.920685 
	C527.165649,277.884460 527.174133,277.880249 533.955811,277.878326 
	C538.286743,277.877106 542.618408,277.943054 546.948486,277.885132 
	C553.254944,277.800812 555.802490,275.310516 555.852905,269.124390 
	C555.915405,261.462341 555.909729,253.799377 555.875977,246.137070 
	C555.848755,239.936539 553.446289,237.391891 547.223816,237.183258 
	C542.731384,237.032639 538.229675,237.162964 533.732117,237.159119 
	C527.173340,237.153519 527.152039,237.150146 527.147034,230.543884 
	C527.125122,201.226547 527.139343,171.909149 527.085571,142.591888 
	C527.073364,135.918808 525.152039,134.122269 518.370850,134.109207 
	C507.043701,134.087387 495.713043,134.266129 484.390991,134.024948 
	C479.791138,133.926971 476.327667,135.454208 473.511475,138.912766 
	C467.532104,146.255966 461.524658,153.576263 455.547974,160.921600 
	C448.441650,169.655243 441.355560,178.405319 433.578186,186.840576 
	C431.752014,186.226181 429.925812,185.611786 427.926758,184.302475 
	C424.665253,182.015396 421.403748,179.728302 417.444641,176.952011 
	C417.530151,176.496658 417.881134,174.627502 418.232147,172.758331 
	C417.813843,172.606064 417.395538,172.453796 416.977234,172.301529 
	C415.661469,175.293793 414.345734,178.286057 412.386566,181.120209 
	C411.608429,181.512360 410.830322,181.904510 409.437561,182.438385 
	C408.604797,183.282852 407.772034,184.127319 406.296722,185.107819 
	C403.549286,188.952133 403.843445,189.594498 409.577606,191.588776 
	C410.773193,189.822311 412.032898,187.961121 413.782257,185.633774 
	C417.193542,180.094299 421.870758,179.209747 424.693970,184.146072 
	C425.991241,186.414368 424.960449,190.014145 425.002869,192.999405 
	C425.002869,192.999405 425.012268,192.981033 424.338440,193.082870 
	C420.886902,197.391266 417.435364,201.699677 414.001251,206.001373 
	C414.001251,206.001373 414.008362,205.984039 413.360443,206.057846 
M395.540283,331.506042 
	C394.662201,328.012451 393.784149,324.518890 392.928131,320.229279 
	C391.894470,315.170166 390.860779,310.111053 389.908203,304.252289 
	C388.988953,301.765167 388.069702,299.278046 387.135284,295.960907 
	C386.748108,292.976532 386.360962,289.992157 386.121887,286.250458 
	C387.301605,281.806183 388.481293,277.361908 389.817841,272.057434 
	C389.833740,269.719971 389.849670,267.382507 389.952606,264.129364 
	C389.353088,260.675201 388.753601,257.221008 388.152405,253.043472 
	C388.052704,252.329941 387.953003,251.616394 387.873779,250.148758 
	C385.924286,240.700745 380.881683,232.936539 374.763885,224.924133 
	C374.966339,209.820999 375.276917,194.654587 370.822510,180.020325 
	C363.345215,155.454819 348.133362,138.680176 321.996948,133.899811 
	C314.047394,132.445831 305.892548,132.114136 297.390533,130.702316 
	C296.044800,127.599747 293.660065,126.841240 290.614044,127.809364 
	C286.122498,129.236954 281.654694,130.739258 276.391693,132.215088 
	C272.416382,133.317291 268.045197,133.722260 264.565857,135.697922 
	C260.201416,138.176163 258.628693,136.225052 257.027710,132.856140 
	C254.355637,127.233292 251.666779,121.618423 249.075500,115.385376 
	C249.108139,114.972458 249.140778,114.559532 249.538818,113.827271 
	C249.778198,113.574120 249.874573,113.274895 250.007446,112.146637 
	C250.519073,109.714058 251.241989,107.304298 251.507599,104.845154 
	C253.085068,90.239861 252.304291,76.227783 240.616287,64.487419 
	C239.090912,62.353283 237.634705,61.241005 235.856277,64.352188 
	C232.166016,70.808006 227.962494,77.006790 224.748138,83.685753 
	C222.528137,88.298561 220.834747,93.460411 220.323013,98.520218 
	C219.762512,104.061996 220.468552,109.824524 221.326294,115.382248 
	C221.839050,118.704636 221.181595,119.847031 217.914139,120.302048 
	C207.591797,121.739517 197.302673,123.415375 186.491745,124.508270 
	C184.234909,124.703201 181.934311,124.686096 179.731155,125.141014 
	C176.110916,125.888542 172.553864,126.942093 168.319321,127.909782 
	C167.884262,127.917587 167.449203,127.925392 166.561005,127.448807 
	C164.676727,127.899048 162.792465,128.349289 160.008072,128.860703 
	C158.041107,128.913345 156.058395,129.148178 154.110535,128.979843 
	C150.327103,128.652878 149.520828,130.515518 149.310913,133.980881 
	C143.982498,134.027954 138.565155,133.507187 133.357056,134.322708 
	C129.913223,134.861969 125.939339,136.559647 123.649742,139.062439 
	C117.157707,146.158905 111.376076,153.909210 105.374519,161.449661 
	C88.616562,182.504608 72.085129,203.744080 55.053886,224.575180 
	C48.102386,233.077621 43.547192,241.814346 45.007122,253.177551 
	C45.659924,258.258575 45.093349,263.493286 45.123608,268.657990 
	C45.163383,275.447723 47.635567,277.882477 54.458889,277.883270 
	C77.784126,277.885956 101.109367,277.879059 124.434608,277.878265 
	C131.066467,277.878021 131.067703,277.881805 131.073975,284.747437 
	C131.079010,290.245544 131.031891,295.744202 131.096100,301.241577 
	C131.174210,307.929596 133.189407,309.982666 139.690506,310.009827 
	C149.686859,310.051636 159.683578,310.065125 169.679916,310.028900 
	C175.561493,310.007599 177.800476,307.849274 177.925629,301.881531 
	C178.054871,295.719696 177.935196,289.552948 177.972488,283.388641 
	C177.983063,281.642334 178.161819,279.897034 178.279449,277.876617 
	C185.400391,277.876617 191.889389,277.943726 198.376266,277.855560 
	C203.655441,277.783813 205.958221,275.475708 206.071899,270.225403 
	C206.201630,264.234100 206.211426,258.240173 206.612839,252.330307 
	C206.612839,252.330307 206.956406,252.271744 207.027802,253.061279 
	C207.397705,253.700211 207.767624,254.339142 208.156570,255.708511 
	C209.257095,257.876678 210.357620,260.044830 211.409958,262.872070 
	C211.843842,264.140228 212.277725,265.408386 212.387527,267.555603 
	C212.336700,269.203369 212.088287,270.872772 212.265900,272.495514 
	C213.894867,287.378571 215.597763,302.253540 217.176102,317.950195 
	C217.551132,322.264404 217.926147,326.578613 218.079224,331.695282 
	C216.284103,332.479675 214.498291,333.918365 212.692383,333.944031 
	C199.199829,334.135986 185.703247,334.032837 172.208069,334.069611 
	C170.645935,334.073853 169.084610,334.368622 167.522903,334.528687 
	C167.577621,334.961304 167.632339,335.393890 167.687042,335.826477 
	C247.800537,335.826477 327.914001,335.826477 408.027496,335.826477 
	C408.040985,335.188202 408.054504,334.549927 408.067993,333.911652 
	C403.687378,333.911652 399.306763,333.911652 395.004181,333.286926 
	C395.022797,332.866821 395.041412,332.446716 395.540283,331.506042 
M397.805695,160.701950 
	C395.119507,168.124222 391.947937,175.422256 391.680328,183.494781 
	C393.307404,180.990662 394.250488,178.281815 395.162811,175.562668 
	C396.456787,171.705994 397.728088,167.841721 399.146637,164.148254 
	C399.146637,164.148254 399.336731,164.194565 399.336731,164.194565 
	C399.336731,164.194565 398.979218,164.011520 398.967163,163.308167 
	C399.318756,162.206207 399.670349,161.104248 400.614655,159.689774 
	C403.427002,156.188721 406.239349,152.687653 409.721924,148.352264 
	C402.311981,150.116928 400.321411,155.177505 397.805695,160.701950 
M392.527710,220.130508 
	C389.269440,222.126358 386.011169,224.122192 382.752899,226.118042 
	C383.183350,226.760864 383.613770,227.403687 384.044220,228.046509 
	C388.471863,225.310822 392.899536,222.575119 397.327209,219.839432 
	C397.041870,219.330017 396.756561,218.820587 396.471222,218.311172 
	C395.341370,218.771454 394.211548,219.231750 392.527710,220.130508 
z"/>
<path fill="#77FACE" opacity="1.000000" stroke="none" 
	d="
M434.260742,187.148300 
	C441.355560,178.405319 448.441650,169.655243 455.547974,160.921600 
	C461.524658,153.576263 467.532104,146.255966 473.511475,138.912766 
	C476.327667,135.454208 479.791138,133.926971 484.390991,134.024948 
	C495.713043,134.266129 507.043701,134.087387 518.370850,134.109207 
	C525.152039,134.122269 527.073364,135.918808 527.085571,142.591888 
	C527.139343,171.909149 527.125122,201.226547 527.147034,230.543884 
	C527.152039,237.150146 527.173340,237.153519 533.732117,237.159119 
	C538.229675,237.162964 542.731384,237.032639 547.223816,237.183258 
	C553.446289,237.391891 555.848755,239.936539 555.875977,246.137070 
	C555.909729,253.799377 555.915405,261.462341 555.852905,269.124390 
	C555.802490,275.310516 553.254944,277.800812 546.948486,277.885132 
	C542.618408,277.943054 538.286743,277.877106 533.955811,277.878326 
	C527.174133,277.880249 527.165649,277.884460 527.145569,284.920685 
	C527.128906,290.750824 527.177307,296.581421 527.118896,302.411041 
	C527.064026,307.882263 525.021240,309.971069 519.599121,310.002472 
	C509.271729,310.062286 498.943665,310.068573 488.616211,310.024750 
	C482.846191,310.000244 480.963196,308.034607 480.931702,302.101379 
	C480.890289,294.302124 480.921539,286.502502 480.921539,278.196442 
	C478.747345,278.084351 476.985748,277.916290 475.223969,277.914368 
	C451.570160,277.888336 427.916382,277.892487 404.262573,277.872650 
	C397.074463,277.866638 394.968689,275.792572 394.960510,268.762421 
	C394.952148,261.599792 395.317902,254.415756 394.878784,247.280548 
	C394.441010,240.167847 396.481476,234.383560 401.263458,229.121323 
	C405.723083,224.213806 409.616577,218.791840 414.160706,213.120361 
	C421.128357,204.145691 427.694550,195.647003 434.260742,187.148300 
M449.140289,237.159607 
	C458.623077,237.161804 468.108398,237.038391 477.587280,237.231659 
	C481.091370,237.303101 482.236725,236.177811 482.066467,232.652756 
	C481.785858,226.843552 481.991028,221.010910 481.991150,215.188141 
	C481.991302,207.951691 481.991150,200.715240 481.991150,192.761368 
	C480.678558,193.527832 480.014191,193.711868 479.666779,194.148254 
	C469.230927,207.257965 458.798615,220.370895 448.488647,233.579300 
	C447.895050,234.339767 448.337982,235.909317 449.140289,237.159607 
z"/>
<path fill="#77FACE" opacity="1.000000" stroke="none" 
	d="
M206.273346,252.247406 
	C206.211426,258.240173 206.201630,264.234100 206.071899,270.225403 
	C205.958221,275.475708 203.655441,277.783813 198.376266,277.855560 
	C191.889389,277.943726 185.400391,277.876617 178.279449,277.876617 
	C178.161819,279.897034 177.983063,281.642334 177.972488,283.388641 
	C177.935196,289.552948 178.054871,295.719696 177.925629,301.881531 
	C177.800476,307.849274 175.561493,310.007599 169.679916,310.028900 
	C159.683578,310.065125 149.686859,310.051636 139.690506,310.009827 
	C133.189407,309.982666 131.174210,307.929596 131.096100,301.241577 
	C131.031891,295.744202 131.079010,290.245544 131.073975,284.747437 
	C131.067703,277.881805 131.066467,277.878021 124.434608,277.878265 
	C101.109367,277.879059 77.784126,277.885956 54.458889,277.883270 
	C47.635567,277.882477 45.163383,275.447723 45.123608,268.657990 
	C45.093349,263.493286 45.659924,258.258575 45.007122,253.177551 
	C43.547192,241.814346 48.102386,233.077621 55.053886,224.575180 
	C72.085129,203.744080 88.616562,182.504608 105.374519,161.449661 
	C111.376076,153.909210 117.157707,146.158905 123.649742,139.062439 
	C125.939339,136.559647 129.913223,134.861969 133.357056,134.322708 
	C138.565155,133.507187 143.982498,134.027954 150.061676,134.000488 
	C151.638489,134.998199 152.464523,135.976303 153.301910,137.282623 
	C155.228439,139.305405 157.143616,140.999939 159.434891,142.816864 
	C160.861664,142.966309 161.912323,142.993347 163.205048,143.245468 
	C164.660828,143.274307 165.874527,143.078079 167.428192,142.876007 
	C168.202164,142.744614 168.636185,142.619049 169.245834,142.617889 
	C169.421463,142.742294 169.821045,142.898621 170.141357,143.038544 
	C171.639923,142.838165 172.818192,142.497894 174.261734,142.055908 
	C174.701797,141.881180 174.876572,141.808182 175.291504,141.854126 
	C175.686127,142.061661 175.840637,142.150223 176.001373,142.555511 
	C176.584991,143.579010 177.162369,144.285782 177.811691,145.456253 
	C177.840790,154.946152 177.797958,163.972366 177.553574,173.005371 
	C177.352020,173.012161 176.949005,173.028488 176.581390,172.972443 
	C173.334457,170.735046 169.772568,169.912643 167.306580,172.379044 
	C165.865997,173.819855 166.372116,177.267990 166.130432,179.825150 
	C165.968613,181.537277 166.031586,183.270645 165.627228,185.055054 
	C164.655136,187.628845 162.981064,190.570084 163.764755,192.527130 
	C164.457703,194.257645 167.784073,195.351959 170.138474,195.885239 
	C172.669464,196.458527 175.422623,196.051010 178.045837,196.421814 
	C178.070541,197.466766 178.128265,198.161316 177.851410,199.021423 
	C177.072769,199.411011 176.510818,199.530319 176.203751,199.876007 
	C174.180420,202.153870 172.211990,204.480499 170.225647,206.791199 
	C172.654449,206.815796 175.083237,206.840393 177.657898,207.321075 
	C177.803741,217.629349 177.803741,227.481537 177.803741,236.949249 
	C183.780106,236.949249 188.880600,236.949249 194.058319,237.291275 
	C197.568893,240.250809 201.002258,242.868332 204.503754,245.803268 
	C205.139038,248.162933 205.706192,250.205170 206.273346,252.247406 
M115.879181,212.341675 
	C109.474052,220.406433 103.068916,228.471207 96.663788,236.535980 
	C96.916397,236.950211 97.169014,237.364426 97.421623,237.778656 
	C107.680618,237.778656 117.941978,237.653641 128.197311,237.847504 
	C131.714081,237.913986 132.884659,236.718353 132.844940,233.254303 
	C132.703644,220.930222 132.798309,208.603561 132.754410,196.278046 
	C132.750687,195.232819 132.381683,194.188919 131.975967,192.062622 
	C126.295387,199.145523 121.254646,205.430634 115.879181,212.341675 
z"/>
<path fill="#FDDA99" opacity="1.000000" stroke="none" 
	d="
M387.853302,250.902863 
	C387.953003,251.616394 388.052704,252.329941 388.095703,253.795364 
	C385.275543,257.348022 382.451019,260.092194 379.778076,262.976868 
	C378.684235,264.157349 377.067566,265.698761 377.153564,266.977509 
	C377.486694,271.932373 378.617859,276.842621 377.278534,281.817261 
	C377.248718,281.928040 377.738922,282.178833 378.888397,283.039917 
	C380.319763,280.282623 381.526154,277.566254 383.078308,275.064331 
	C385.203156,271.639252 387.590668,268.377045 389.865601,265.045044 
	C389.849670,267.382507 389.833740,269.719971 389.431458,272.586609 
	C382.875549,282.342987 376.681244,291.553741 370.556366,300.810486 
	C369.251770,302.782166 368.199768,304.920929 366.806244,306.872253 
	C366.391815,306.492218 366.202545,306.222687 365.912231,305.737915 
	C365.617218,305.255371 365.361572,305.075867 364.794617,304.821564 
	C364.389954,304.099884 364.234924,303.540833 364.331665,302.807617 
	C365.392517,301.429749 366.201538,300.226013 367.329010,298.974121 
	C368.086304,298.283020 368.525146,297.640076 368.975983,296.596558 
	C369.447205,293.905975 369.906403,291.615967 370.365631,289.325989 
	C365.409302,292.211609 361.664856,296.073853 358.554626,300.969330 
	C356.450653,300.908356 354.768372,300.825287 352.998291,300.437317 
	C352.190613,299.830292 351.470703,299.528229 350.377197,299.193604 
	C349.005859,299.098053 348.008057,299.035034 346.750244,298.737549 
	C340.402191,295.429108 334.314148,292.355194 327.866211,289.179199 
	C326.324158,288.729126 325.141998,288.381134 323.672852,287.861053 
	C320.921936,285.130005 318.458069,282.571075 315.920868,279.942688 
	C315.847565,279.873230 315.684540,279.833893 315.684540,279.833893 
	C315.684540,279.833893 316.014923,279.990814 316.067963,280.332886 
	C317.492462,283.740387 314.646210,283.534058 313.322968,283.793152 
	C307.085724,285.014282 300.792969,285.951782 294.083679,286.905273 
	C287.532745,286.253967 281.423004,285.614685 275.297882,285.207092 
	C274.460907,285.151398 272.978333,286.084930 272.757629,286.841370 
	C270.766876,293.664978 268.991058,300.551331 267.062927,307.825073 
	C264.533997,316.778473 262.094299,325.326080 259.244629,333.870483 
	C256.643677,333.853455 254.452682,333.839661 252.177795,333.467346 
	C249.009308,324.756439 245.924744,316.404022 243.194427,307.901978 
	C244.595581,305.556274 245.642471,303.360107 247.047287,300.413147 
	C244.034607,300.413147 242.678513,300.413147 241.443481,300.413147 
	C240.930771,296.267548 239.730118,292.430603 240.169266,288.791595 
	C240.904877,282.695618 237.986206,280.798523 232.388489,280.743347 
	C235.595566,271.977081 227.823547,274.103760 225.269333,272.779724 
	C224.406326,267.538025 223.702545,263.263519 223.356079,258.919434 
	C231.468155,255.239151 239.222961,251.628479 246.989014,248.008484 
	C247.000290,247.999130 247.018967,247.976303 247.349792,247.911041 
	C251.455048,245.025711 255.387390,242.388245 258.942444,239.314423 
	C260.952789,237.576187 262.343201,235.120956 264.007141,232.998138 
	C264.001434,233.007584 263.982269,233.011749 264.309357,232.989716 
	C265.383545,232.272079 266.130646,231.576508 266.893402,230.936310 
	C266.909058,230.991684 266.901276,230.878952 267.140106,230.793640 
	C267.542999,230.424698 267.707062,230.141052 268.030823,229.576324 
	C269.798431,227.586380 271.406311,225.877533 273.249084,224.038147 
	C273.665070,223.609070 273.846222,223.310532 274.015533,223.008881 
	C274.003723,223.005798 274.024323,223.030273 274.338684,222.903992 
	C276.103119,220.733459 277.553223,218.689209 279.274231,216.500488 
	C282.336914,211.604950 285.128693,206.853867 288.012909,201.869995 
	C288.109802,201.470276 288.114197,201.303345 288.287598,201.086426 
	C288.456573,201.036438 288.803314,200.968750 289.208557,201.060547 
	C302.402313,202.800919 315.190796,204.449509 328.342224,206.241211 
	C334.177856,207.554703 339.650482,208.725082 344.828247,210.154022 
	C340.114868,218.230911 345.824890,235.633240 354.038116,242.840530 
	C363.824066,251.427856 375.252350,253.788452 387.853302,250.902863 
M339.772675,217.977753 
	C337.810150,217.246964 335.880127,216.250305 333.858490,216.003235 
	C333.439484,215.952026 331.860687,218.972610 332.247986,220.074127 
	C333.062042,222.389359 334.634796,224.544846 336.312622,226.386459 
	C336.840271,226.965591 339.740784,226.495422 339.781677,226.231064 
	C340.139465,223.918884 340.098053,221.544540 340.162872,219.188293 
	C340.167206,219.031067 340.071991,218.871094 339.772675,217.977753 
z"/>
<path fill="#FCDA99" opacity="1.000000" stroke="none" 
	d="
M175.051361,141.735168 
	C174.876572,141.808182 174.701797,141.881180 173.877655,141.990295 
	C172.189728,142.023468 171.151169,142.020554 169.916962,142.047821 
	C169.466385,142.157196 169.249344,142.295685 169.070206,142.493469 
	C168.636185,142.619049 168.202164,142.744614 167.413635,142.503906 
	C168.153351,136.741028 172.785065,138.447174 176.216553,137.743454 
	C175.880554,137.381409 175.544540,137.019348 175.208542,136.657303 
	C179.139252,132.771210 183.069977,128.885101 187.000687,124.999008 
	C197.302673,123.415375 207.591797,121.739517 217.914139,120.302048 
	C221.181595,119.847031 221.839050,118.704636 221.326294,115.382248 
	C220.468552,109.824524 219.762512,104.061996 220.323013,98.520218 
	C220.834747,93.460411 222.528137,88.298561 224.748138,83.685753 
	C227.962494,77.006790 232.166016,70.808006 235.856277,64.352188 
	C237.634705,61.241005 239.090912,62.353283 240.383942,64.846466 
	C239.893051,66.343773 239.136673,67.649742 239.454697,68.593796 
	C242.015167,76.194473 241.652008,83.592514 237.973312,90.675323 
	C234.085861,98.160110 234.338058,105.960464 235.962280,113.813423 
	C236.225464,115.085876 238.342728,116.781738 239.686493,116.860710 
	C242.758514,117.041237 245.882248,116.342072 248.984970,116.000206 
	C251.666779,121.618423 254.355637,127.233292 257.027710,132.856140 
	C258.628693,136.225052 260.201416,138.176163 264.565857,135.697922 
	C268.045197,133.722260 272.416382,133.317291 276.855194,132.580627 
	C279.281281,144.948074 282.550293,148.788040 292.108887,150.778580 
	C289.651062,157.926697 284.914612,162.787170 278.749329,165.953461 
	C274.232269,168.273254 273.573517,170.952423 276.046204,174.947906 
	C276.907623,176.339859 277.882202,177.661789 278.949310,179.324997 
	C279.998016,180.766891 280.902557,181.899490 282.211700,183.538742 
	C280.070251,185.053497 278.369812,186.646088 276.364197,187.590668 
	C272.640656,189.344315 268.738922,190.719681 264.639069,192.224792 
	C263.900665,192.450668 263.434570,192.704285 262.751587,192.955887 
	C262.534698,192.953857 262.130371,193.111176 261.733734,193.090637 
	C256.878296,194.376602 252.419479,195.683105 247.575439,196.970398 
	C245.453323,197.295593 243.716400,197.640015 241.534241,197.966125 
	C237.972656,198.571854 234.856323,199.195908 231.314911,199.830750 
	C228.566208,199.938049 226.242584,200.034546 223.486588,200.074860 
	C219.373535,199.788315 215.692856,199.557968 211.734604,199.237076 
	C211.272247,199.085342 211.087463,199.024170 210.707489,198.671753 
	C206.399445,196.926956 202.286621,195.473434 198.097839,193.719528 
	C197.977783,192.805405 197.933701,192.191666 197.918747,191.134903 
	C198.303955,188.794617 198.660019,186.897369 199.386597,184.942627 
	C202.820862,183.394562 206.122269,182.246689 208.889313,180.328156 
	C212.493011,177.829559 213.076401,171.526428 210.699509,166.602951 
	C208.220840,161.468582 205.297073,159.930649 200.142731,160.652069 
	C200.376160,154.560608 200.667175,148.897354 201.111023,142.843689 
	C201.782288,139.151062 202.300705,135.848831 203.100433,130.754730 
	C195.878906,133.128357 189.863541,134.911743 184.003784,137.109924 
	C180.880768,138.281494 178.026779,140.170181 175.051361,141.735168 
M241.575562,131.283600 
	C240.980652,133.952911 239.973022,136.630814 240.028305,139.286591 
	C240.046188,140.145264 242.854340,140.945877 245.113281,141.650909 
	C247.641190,140.945908 250.237930,140.413849 252.662338,139.448837 
	C253.601654,139.074936 254.961914,137.274658 254.747696,136.885635 
	C253.241013,134.149628 251.811249,131.092041 249.504044,129.150925 
	C246.951416,127.003304 244.266113,128.725357 241.575562,131.283600 
M231.734467,148.076675 
	C235.924515,146.098557 237.323364,141.899597 235.240784,137.551697 
	C232.989517,132.851608 229.317703,131.721176 223.512650,134.286392 
	C220.107635,137.443802 220.461273,141.359451 221.816666,145.109787 
	C223.251373,149.079559 228.015900,150.526215 231.734467,148.076675 
M241.634552,126.973419 
	C244.622757,126.492348 247.610977,126.011276 251.829544,125.332138 
	C247.438782,121.969620 243.685532,123.175369 240.122162,123.246834 
	C240.347672,124.472198 240.573166,125.697556 241.634552,126.973419 
M223.187012,130.920502 
	C225.954590,130.802948 227.945267,129.931854 227.567352,125.589638 
	C223.832184,127.021095 220.587601,128.264542 217.343002,129.507996 
	C217.443390,129.982910 217.543777,130.457809 217.644180,130.932724 
	C219.217102,130.932724 220.790024,130.932724 223.187012,130.920502 
z"/>
<path fill="#77F9CE" opacity="1.000000" stroke="none" 
	d="
M278.805115,179.015701 
	C277.882202,177.661789 276.907623,176.339859 276.046204,174.947906 
	C273.573517,170.952423 274.232269,168.273254 278.749329,165.953461 
	C284.914612,162.787170 289.651062,157.926697 292.393250,150.647446 
	C294.433716,143.839020 296.132721,137.553741 297.831726,131.268448 
	C305.892548,132.114136 314.047394,132.445831 321.996948,133.899811 
	C348.133362,138.680176 363.345215,155.454819 370.822510,180.020325 
	C375.276917,194.654587 374.966339,209.820999 374.455811,225.215240 
	C365.615173,218.178879 356.248749,212.401764 345.123138,209.895447 
	C339.650482,208.725082 334.177856,207.554703 328.308746,205.803070 
	C327.571167,201.767380 327.313202,198.302353 326.874359,194.860397 
	C325.109161,181.015076 316.648468,172.703537 303.643372,172.022293 
	C295.689941,171.605682 288.111298,172.641876 281.406250,178.033813 
	C280.324493,178.376251 279.564789,178.695969 278.805115,179.015701 
z"/>
<path fill="#FCD894" opacity="1.000000" stroke="none" 
	d="
M222.998779,258.989014 
	C223.702545,263.263519 224.406326,267.538025 225.269333,272.779724 
	C227.823547,274.103760 235.595566,271.977081 232.388489,280.743347 
	C237.986206,280.798523 240.904877,282.695618 240.169266,288.791595 
	C239.730118,292.430603 240.930771,296.267548 241.443481,300.413147 
	C242.678513,300.413147 244.034607,300.413147 247.047287,300.413147 
	C245.642471,303.360107 244.595581,305.556274 242.949661,307.694824 
	C241.947723,306.839294 241.544785,306.041321 240.831192,304.628143 
	C238.042328,309.895142 235.599457,314.508728 233.037842,318.719910 
	C227.705765,317.921967 222.492432,317.526428 217.279099,317.130859 
	C215.597763,302.253540 213.894867,287.378571 212.265900,272.495514 
	C212.088287,270.872772 212.336700,269.203369 212.824371,267.254578 
	C215.592575,269.548615 217.923965,272.143738 220.255341,274.738861 
	C220.730789,274.296997 221.206253,273.855164 221.681702,273.413330 
	C218.273849,269.679871 214.865997,265.946442 211.458130,262.213013 
	C210.357620,260.044830 209.257095,257.876678 208.476227,255.310638 
	C209.538651,253.922974 210.281433,252.933182 211.331116,252.092361 
	C215.424957,254.490570 219.211868,256.739777 222.998779,258.989014 
M237.003265,302.407684 
	C237.560837,302.667664 238.118408,302.927612 238.675995,303.187561 
	C238.745728,302.141357 239.005936,301.051056 238.779434,300.073486 
	C238.702637,299.742065 237.396500,299.695465 236.652130,299.518677 
	C236.714066,300.272308 236.776016,301.025970 237.003265,302.407684 
z"/>
<path fill="#FDC14E" opacity="1.000000" stroke="none" 
	d="
M344.828247,210.154022 
	C356.248749,212.401764 365.615173,218.178879 374.390991,225.667282 
	C380.881683,232.936539 385.924286,240.700745 387.863525,250.525818 
	C375.252350,253.788452 363.824066,251.427856 354.038116,242.840530 
	C345.824890,235.633240 340.114868,218.230911 344.828247,210.154022 
z"/>
<path fill="#FBBF53" opacity="1.000000" stroke="none" 
	d="
M249.030243,115.692795 
	C245.882248,116.342072 242.758514,117.041237 239.686493,116.860710 
	C238.342728,116.781738 236.225464,115.085876 235.962280,113.813423 
	C234.338058,105.960464 234.085861,98.160110 237.973312,90.675323 
	C241.652008,83.592514 242.015167,76.194473 239.454697,68.593796 
	C239.136673,67.649742 239.893051,66.343773 240.510254,65.147400 
	C252.304291,76.227783 253.085068,90.239861 251.507599,104.845154 
	C251.241989,107.304298 250.519073,109.714058 249.708252,112.676041 
	C249.330521,113.519165 249.251968,113.832886 249.173401,114.146614 
	C249.140778,114.559532 249.108139,114.972458 249.030243,115.692795 
z"/>
<path fill="#B3FEE4" opacity="1.000000" stroke="none" 
	d="
M252.261688,333.825836 
	C254.452682,333.839661 256.643677,333.853455 259.746887,333.932861 
	C282.231842,333.959930 303.804565,333.921448 325.757812,333.899292 
	C327.676270,333.910706 329.214142,333.905884 331.234009,333.951782 
	C351.186584,333.948914 370.657196,333.895355 390.528320,333.868103 
	C392.261292,333.900146 393.593719,333.905914 394.926147,333.911682 
	C399.306763,333.911652 403.687378,333.911652 408.067993,333.911652 
	C408.054504,334.549927 408.040985,335.188202 408.027496,335.826477 
	C327.914001,335.826477 247.800537,335.826477 167.687042,335.826477 
	C167.632339,335.393890 167.577621,334.961304 167.522903,334.528687 
	C169.084610,334.368622 170.645935,334.073853 172.208069,334.069611 
	C185.703247,334.032837 199.199829,334.135986 212.692383,333.944031 
	C214.498291,333.918365 216.284103,332.479675 218.409698,331.574219 
	C220.642380,336.191681 223.840866,333.687164 227.043213,333.204254 
	C235.654922,333.625000 243.958298,333.725433 252.261688,333.825836 
z"/>
<path fill="#542212" opacity="1.000000" stroke="none" 
	d="
M297.611145,130.985382 
	C296.132721,137.553741 294.433716,143.839020 292.450378,150.255447 
	C282.550293,148.788040 279.281281,144.948074 277.247742,132.577942 
	C281.654694,130.739258 286.122498,129.236954 290.614044,127.809364 
	C293.660065,126.841240 296.044800,127.599747 297.611145,130.985382 
z"/>
<path fill="#FEE4B5" opacity="1.000000" stroke="none" 
	d="
M367.031372,306.982727 
	C368.199768,304.920929 369.251770,302.782166 370.556366,300.810486 
	C376.681244,291.553741 382.875549,282.342987 389.353027,273.016724 
	C388.481293,277.361908 387.301605,281.806183 385.680389,286.630524 
	C380.170685,288.248016 379.598541,292.917725 377.166473,296.167572 
	C377.555634,296.503479 377.944794,296.839355 378.333954,297.175262 
	C380.188538,295.136871 382.043121,293.098450 383.897705,291.060059 
	C384.339386,291.394501 384.781097,291.728943 385.222778,292.063416 
	C381.204529,297.462402 381.512329,305.225616 374.776917,309.215179 
	C373.530457,309.953461 372.899750,311.731323 371.686035,312.884491 
	C369.935303,310.820618 368.483337,308.901672 367.031372,306.982727 
z"/>
<path fill="#FCC24F" opacity="1.000000" stroke="none" 
	d="
M226.734879,332.883911 
	C223.840866,333.687164 220.642380,336.191681 218.520660,331.172974 
	C217.926147,326.578613 217.551132,322.264404 217.227600,317.540527 
	C222.492432,317.526428 227.705765,317.921967 232.970383,319.071533 
	C230.926071,324.178375 228.830475,328.531128 226.734879,332.883911 
z"/>
<path fill="#FDDFA3" opacity="1.000000" stroke="none" 
	d="
M389.827118,305.051941 
	C390.860779,310.111053 391.894470,315.170166 392.658325,320.833923 
	C391.644958,324.153442 390.980347,326.895294 390.070160,329.553101 
	C389.938019,329.938995 388.630188,329.922272 387.529175,330.024414 
	C384.485809,326.970551 381.779694,323.984100 379.331116,320.755646 
	C382.018585,315.774994 384.370544,310.992950 386.958832,306.342407 
	C387.367737,305.607727 388.844238,305.467194 389.827118,305.051941 
z"/>
<path fill="#FDE2AD" opacity="1.000000" stroke="none" 
	d="
M389.909119,264.587219 
	C387.590668,268.377045 385.203156,271.639252 383.078308,275.064331 
	C381.526154,277.566254 380.319763,280.282623 378.888397,283.039917 
	C377.738922,282.178833 377.248718,281.928040 377.278534,281.817261 
	C378.617859,276.842621 377.486694,271.932373 377.153564,266.977509 
	C377.067566,265.698761 378.684235,264.157349 379.778076,262.976868 
	C382.451019,260.092194 385.275543,257.348022 388.096558,254.157043 
	C388.753601,257.221008 389.353088,260.675201 389.909119,264.587219 
z"/>
<path fill="#ECC666" opacity="1.000000" stroke="none" 
	d="
M223.356079,258.919434 
	C219.211868,256.739777 215.424957,254.490570 211.180847,251.795090 
	C209.739853,250.693909 208.756088,250.038956 207.772308,249.384018 
	C207.500351,250.346603 207.228378,251.309174 206.956421,252.271744 
	C206.956406,252.271744 206.612839,252.330307 206.443085,252.288849 
	C205.706192,250.205170 205.139038,248.162933 204.772339,245.843353 
	C206.603210,246.411377 208.233643,247.256744 210.046967,248.338806 
	C210.788773,248.756332 211.347672,248.937149 211.943542,249.057159 
	C211.980499,248.996368 211.874786,249.093338 212.031799,249.359299 
	C213.364456,250.445953 214.540085,251.266663 215.914383,252.392792 
	C219.799362,255.657791 223.588867,257.679749 228.315063,253.909454 
	C229.746445,253.153641 230.867798,252.495209 232.346664,251.786224 
	C239.473236,247.871658 246.242310,244.007629 253.322662,240.016449 
	C255.218796,238.645004 256.803650,237.400696 258.672302,236.019806 
	C260.641693,234.918381 262.327301,233.953537 264.012878,232.988678 
	C262.343201,235.120956 260.952789,237.576187 258.942444,239.314423 
	C255.387390,242.388245 251.455048,245.025711 247.294434,247.766388 
	C246.812286,247.640488 246.716324,247.594009 246.620346,247.547531 
	C246.739487,247.704285 246.858627,247.861053 246.977753,248.017822 
	C239.222961,251.628479 231.468155,255.239151 223.356079,258.919434 
z"/>
<path fill="#FCE5B8" opacity="1.000000" stroke="none" 
	d="
M186.746216,124.753639 
	C183.069977,128.885101 179.139252,132.771210 175.208542,136.657303 
	C175.544540,137.019348 175.880554,137.381409 176.216553,137.743454 
	C172.785065,138.447174 168.153351,136.741028 167.073669,142.509720 
	C165.874527,143.078079 164.660828,143.274307 163.354034,142.930099 
	C165.949463,137.857407 169.981400,133.853287 168.970169,127.866608 
	C172.553864,126.942093 176.110916,125.888542 179.731155,125.141014 
	C181.934311,124.686096 184.234909,124.703201 186.746216,124.753639 
z"/>
<path fill="#FDDFA3" opacity="1.000000" stroke="none" 
	d="
M371.984863,313.029388 
	C372.899750,311.731323 373.530457,309.953461 374.776917,309.215179 
	C381.512329,305.225616 381.204529,297.462402 385.222778,292.063416 
	C384.781097,291.728943 384.339386,291.394501 383.897705,291.060059 
	C382.043121,293.098450 380.188538,295.136871 378.333954,297.175262 
	C377.944794,296.839355 377.555634,296.503479 377.166473,296.167572 
	C379.598541,292.917725 380.170685,288.248016 385.606354,287.009186 
	C386.360962,289.992157 386.748108,292.976532 387.089417,296.765869 
	C383.666473,304.135529 380.289398,310.700195 376.629700,317.085815 
	C374.893036,315.614319 373.438934,314.321838 371.984863,313.029388 
z"/>
<path fill="#F9FFFD" opacity="1.000000" stroke="none" 
	d="
M433.919464,186.994446 
	C427.694550,195.647003 421.128357,204.145691 414.266388,212.799881 
	C413.370117,212.404266 412.769592,211.853149 412.048828,210.686752 
	C411.953644,209.376694 411.978668,208.681931 412.003723,207.987152 
	C412.003723,207.987152 412.001221,208.001221 412.339355,208.023560 
	C413.121124,207.358612 413.564758,206.671326 414.008362,205.984039 
	C414.008362,205.984039 414.001251,206.001373 414.345581,206.033356 
	C418.130676,201.703888 421.571472,197.342453 425.012268,192.981018 
	C425.012268,192.981033 425.002869,192.999405 425.386597,193.000061 
	C426.546783,190.332947 427.323212,187.665161 428.099670,184.997375 
	C429.925812,185.611786 431.752014,186.226181 433.919464,186.994446 
z"/>
<path fill="#FDE2AD" opacity="1.000000" stroke="none" 
	d="
M428.013214,184.649933 
	C427.323212,187.665161 426.546783,190.332947 425.377869,193.005432 
	C424.960449,190.014145 425.991241,186.414368 424.693970,184.146072 
	C421.870758,179.209747 417.193542,180.094299 413.121155,185.829437 
	C410.619812,185.673996 408.779541,185.322906 406.939301,184.971802 
	C407.772034,184.127319 408.604797,183.282852 409.802612,182.674347 
	C412.706848,185.146393 412.851715,183.183060 413.029968,181.278305 
	C414.345734,178.286057 415.661469,175.293793 416.977234,172.301529 
	C417.395538,172.453796 417.813843,172.606064 418.232147,172.758331 
	C417.881134,174.627502 417.530151,176.496658 417.444641,176.952011 
	C421.403748,179.728302 424.665253,182.015396 428.013214,184.649933 
z"/>
<path fill="#FCE5B8" opacity="1.000000" stroke="none" 
	d="
M376.912292,317.264832 
	C380.289398,310.700195 383.666473,304.135529 387.096985,297.180908 
	C388.069702,299.278046 388.988953,301.765167 389.867676,304.652100 
	C388.844238,305.467194 387.367737,305.607727 386.958832,306.342407 
	C384.370544,310.992950 382.018585,315.774994 379.023041,320.613342 
	C377.942383,319.563629 377.427338,318.414246 376.912292,317.264832 
z"/>
<path fill="#FCE5B8" opacity="1.000000" stroke="none" 
	d="
M159.058792,142.694489 
	C157.143616,140.999939 155.228439,139.305405 153.632385,137.241028 
	C155.113022,136.286316 156.322144,135.121567 157.428146,135.212402 
	C163.734207,135.730240 162.163467,132.231339 160.908188,128.799530 
	C162.792465,128.349289 164.676727,127.899048 166.782990,128.083130 
	C166.224319,130.424942 165.578918,132.211761 164.633804,133.822754 
	C162.867310,136.833878 160.926865,139.742950 159.058792,142.694489 
z"/>
<path fill="#FDE2AD" opacity="1.000000" stroke="none" 
	d="
M160.458130,128.830109 
	C162.163467,132.231339 163.734207,135.730240 157.428146,135.212402 
	C156.322144,135.121567 155.113022,136.286316 153.621033,136.912781 
	C152.464523,135.976303 151.638489,134.998199 150.533112,133.878006 
	C149.520828,130.515518 150.327103,128.652878 154.110535,128.979843 
	C156.058395,129.148178 158.041107,128.913345 160.458130,128.830109 
z"/>
<path fill="#FDDFA3" opacity="1.000000" stroke="none" 
	d="
M159.434891,142.816864 
	C160.926865,139.742950 162.867310,136.833878 164.633804,133.822754 
	C165.578918,132.211761 166.224319,130.424942 167.009552,128.325333 
	C167.449203,127.925392 167.884262,127.917587 168.644745,127.888199 
	C169.981400,133.853287 165.949463,137.857407 163.111969,142.705032 
	C161.912323,142.993347 160.861664,142.966309 159.434891,142.816864 
z"/>
<path fill="#FCD894" opacity="1.000000" stroke="none" 
	d="
M399.009094,163.980698 
	C397.728088,167.841721 396.456787,171.705994 395.162811,175.562668 
	C394.250488,178.281815 393.307404,180.990662 391.680328,183.494781 
	C391.947937,175.422256 395.119507,168.124222 398.274689,160.360321 
	C399.169769,160.013229 399.595856,160.007767 400.021942,160.002289 
	C399.670349,161.104248 399.318756,162.206207 398.982788,163.654037 
	C398.998413,163.999908 399.009094,163.980698 399.009094,163.980698 
z"/>
<path fill="#FCE5B8" opacity="1.000000" stroke="none" 
	d="
M387.866394,330.091827 
	C388.630188,329.922272 389.938019,329.938995 390.070160,329.553101 
	C390.980347,326.895294 391.644958,324.153442 392.647308,321.231934 
	C393.784149,324.518890 394.662201,328.012451 395.048889,331.596954 
	C394.203705,331.052795 393.849945,330.417725 393.677124,330.107452 
	C392.375488,331.122772 391.189056,332.048248 389.710968,332.850647 
	C388.901703,331.848999 388.384033,330.970398 387.866394,330.091827 
z"/>
<path fill="#FDE2AD" opacity="1.000000" stroke="none" 
	d="
M392.804688,219.911270 
	C394.211548,219.231750 395.341370,218.771454 396.471222,218.311172 
	C396.756561,218.820587 397.041870,219.330017 397.327209,219.839432 
	C392.899536,222.575119 388.471863,225.310822 384.044220,228.046509 
	C383.613770,227.403687 383.183350,226.760864 382.752899,226.118042 
	C386.011169,224.122192 389.269440,222.126358 392.804688,219.911270 
z"/>
<path fill="#FDDFA3" opacity="1.000000" stroke="none" 
	d="
M406.618011,185.039810 
	C408.779541,185.322906 410.619812,185.673996 412.876312,186.062500 
	C412.032898,187.961121 410.773193,189.822311 409.577606,191.588776 
	C403.843445,189.594498 403.549286,188.952133 406.618011,185.039810 
z"/>
<path fill="#FDE2AD" opacity="1.000000" stroke="none" 
	d="
M400.318298,159.846039 
	C399.595856,160.007767 399.169769,160.013229 398.425812,160.028122 
	C400.321411,155.177505 402.311981,150.116928 409.721924,148.352264 
	C406.239349,152.687653 403.427002,156.188721 400.318298,159.846039 
z"/>
<path fill="#FDDFA3" opacity="1.000000" stroke="none" 
	d="
M411.650848,207.995331 
	C411.978668,208.681931 411.953644,209.376694 411.899475,210.415161 
	C407.450104,213.543396 403.029877,216.327911 398.609650,219.112442 
	C398.302002,218.746490 397.994354,218.380539 397.686737,218.014587 
	C402.223816,214.677551 406.760895,211.340530 411.650848,207.995331 
z"/>
<path fill="#E7A426" opacity="1.000000" stroke="none" 
	d="
M211.434052,262.542542 
	C214.865997,265.946442 218.273849,269.679871 221.681702,273.413330 
	C221.206253,273.855164 220.730789,274.296997 220.255341,274.738861 
	C217.923965,272.143738 215.592575,269.548615 212.986389,266.815033 
	C212.277725,265.408386 211.843842,264.140228 211.434052,262.542542 
z"/>
<path fill="#FDDFA3" opacity="1.000000" stroke="none" 
	d="
M424.675354,193.031952 
	C421.571472,197.342453 418.130676,201.703888 414.336853,206.036713 
	C417.435364,201.699677 420.886902,197.391266 424.675354,193.031952 
z"/>
<path fill="#FDDA99" opacity="1.000000" stroke="none" 
	d="
M206.992111,252.666504 
	C207.228378,251.309174 207.500351,250.346603 207.772308,249.384018 
	C208.756088,250.038956 209.739853,250.693909 210.873917,251.646118 
	C210.281433,252.933182 209.538651,253.922974 208.466705,254.945419 
	C207.767624,254.339142 207.397705,253.700211 206.992111,252.666504 
z"/>
<path fill="#FDDFA3" opacity="1.000000" stroke="none" 
	d="
M390.002594,332.973724 
	C391.189056,332.048248 392.375488,331.122772 393.677124,330.107452 
	C393.849945,330.417725 394.203705,331.052795 394.808746,331.857239 
	C395.041412,332.446716 395.022797,332.866821 394.965149,333.599304 
	C393.593719,333.905914 392.261292,333.900146 390.493134,333.652344 
	C390.057404,333.410339 390.002594,332.973724 390.002594,332.973724 
z"/>
<path fill="#FDDFA3" opacity="1.000000" stroke="none" 
	d="
M412.708252,181.199249 
	C412.851715,183.183060 412.706848,185.146393 410.109924,182.603485 
	C410.830322,181.904510 411.608429,181.512360 412.708252,181.199249 
z"/>
<path fill="#FDDFA3" opacity="1.000000" stroke="none" 
	d="
M413.684387,206.020935 
	C413.564758,206.671326 413.121124,207.358612 412.332397,208.025024 
	C412.444977,207.355392 412.902710,206.706619 413.684387,206.020935 
z"/>
<path fill="#FCD894" opacity="1.000000" stroke="none" 
	d="
M398.988831,164.005707 
	C398.979218,164.011520 399.336731,164.194565 399.336731,164.194565 
	C399.336731,164.194565 399.146637,164.148254 399.077881,164.064484 
	C399.009094,163.980698 398.998413,163.999908 398.988831,164.005707 
z"/>
<path fill="#FCDA99" opacity="1.000000" stroke="none" 
	d="
M249.356110,113.986938 
	C249.251968,113.832886 249.330521,113.519165 249.618515,113.067520 
	C249.874573,113.274895 249.778198,113.574120 249.356110,113.986938 
z"/>
<path fill="#FBFFFD" opacity="1.000000" stroke="none" 
	d="
M448.719421,237.130981 
	C448.337982,235.909317 447.895050,234.339767 448.488647,233.579300 
	C458.798615,220.370895 469.230927,207.257965 479.666779,194.148254 
	C480.014191,193.711868 480.678558,193.527832 481.991150,192.761368 
	C481.991150,200.715240 481.991302,207.951691 481.991150,215.188141 
	C481.991028,221.010910 481.785858,226.843552 482.066467,232.652756 
	C482.236725,236.177811 481.091370,237.303101 477.587280,237.231659 
	C468.108398,237.038391 458.623077,237.161804 448.719421,237.130981 
z"/>
<path fill="#FBFEFB" opacity="1.000000" stroke="none" 
	d="
M200.958191,143.234085 
	C200.667175,148.897354 200.376160,154.560608 200.074066,161.090332 
	C199.714005,169.637878 199.365051,177.319000 199.016083,185.000107 
	C198.660019,186.897369 198.303955,188.794617 197.593384,191.137817 
	C195.192505,193.641998 193.146103,195.700241 191.089661,198.216736 
	C191.774475,207.080154 192.469345,215.485306 193.101242,224.302277 
	C193.074646,225.822052 193.111023,226.930054 193.101074,228.451370 
	C193.363510,231.559555 193.672302,234.254395 193.981079,236.949249 
	C188.880600,236.949249 183.780106,236.949249 177.803741,236.949249 
	C177.803741,227.481537 177.803741,217.629349 177.900787,207.055725 
	C179.969757,203.203445 185.531189,202.697708 184.770966,196.651199 
	C182.282104,197.484482 180.234055,198.170181 178.186005,198.855881 
	C178.128265,198.161316 178.070541,197.466766 178.025482,196.414490 
	C178.038162,196.056763 178.057846,196.077850 178.470001,196.041351 
	C181.169006,195.666443 183.455826,195.328018 186.689301,194.849503 
	C184.931854,190.521591 183.571381,187.171265 182.195663,183.453278 
	C180.705322,179.723267 179.230225,176.360916 177.755127,172.998566 
	C177.797958,163.972366 177.840790,154.946152 177.898529,145.122162 
	C177.959167,143.638397 178.004883,142.952408 178.500061,142.211426 
	C186.285736,142.515640 193.621979,142.874863 200.958191,143.234085 
z"/>
<path fill="#F9FFFD" opacity="1.000000" stroke="none" 
	d="
M116.046539,212.028717 
	C121.254646,205.430634 126.295387,199.145523 131.975967,192.062622 
	C132.381683,194.188919 132.750687,195.232819 132.754410,196.278046 
	C132.798309,208.603561 132.703644,220.930222 132.844940,233.254303 
	C132.884659,236.718353 131.714081,237.913986 128.197311,237.847504 
	C117.941978,237.653641 107.680618,237.778656 97.421623,237.778656 
	C97.169014,237.364426 96.916397,236.950211 96.663788,236.535980 
	C103.068916,228.471207 109.474052,220.406433 116.046539,212.028717 
z"/>
<path fill="#58DCB0" opacity="1.000000" stroke="none" 
	d="
M194.058319,237.291275 
	C193.672302,234.254395 193.363510,231.559555 193.545898,228.432892 
	C199.275742,228.600555 204.521118,229.148117 209.750107,229.822495 
	C212.175919,230.135345 212.916687,231.220383 212.227188,233.954254 
	C211.061798,238.574966 210.613739,243.376572 209.864075,248.102112 
	C208.233643,247.256744 206.603210,246.411377 204.704193,245.525909 
	C201.002258,242.868332 197.568893,240.250809 194.058319,237.291275 
z"/>
<path fill="#FBBF53" opacity="1.000000" stroke="none" 
	d="
M201.111038,142.843689 
	C193.621979,142.874863 186.285736,142.515640 178.159988,142.136108 
	C176.912018,142.156769 176.453583,142.197769 175.995132,142.238770 
	C175.840637,142.150223 175.686127,142.061661 175.291504,141.854126 
	C178.026779,140.170181 180.880768,138.281494 184.003784,137.109924 
	C189.863541,134.911743 195.878906,133.128357 203.100433,130.754730 
	C202.300705,135.848831 201.782288,139.151062 201.111038,142.843689 
z"/>
<path fill="#79F9CE" opacity="1.000000" stroke="none" 
	d="
M177.553574,173.005371 
	C179.230225,176.360916 180.705322,179.723267 182.118683,183.517822 
	C182.056931,183.950043 181.905731,184.072327 181.612045,183.913971 
	C180.434464,182.434128 179.550568,181.112640 178.242264,179.156647 
	C178.014496,182.286148 177.841278,184.666153 177.336060,186.938446 
	C175.990814,184.031967 174.082901,182.544083 171.084259,181.903442 
	C168.359222,181.321274 166.610092,176.695923 168.516266,174.738388 
	C169.425064,173.805115 172.074905,174.436966 173.914871,174.599823 
	C174.741486,174.672989 175.516006,175.334579 176.711716,175.925705 
	C176.818924,174.616684 176.883972,173.822586 176.949005,173.028488 
	C176.949005,173.028488 177.352020,173.012161 177.553574,173.005371 
z"/>
<path fill="#68ECC0" opacity="1.000000" stroke="none" 
	d="
M176.581390,172.972443 
	C176.883972,173.822586 176.818924,174.616684 176.711716,175.925705 
	C175.516006,175.334579 174.741486,174.672989 173.914871,174.599823 
	C172.074905,174.436966 169.425064,173.805115 168.516266,174.738388 
	C166.610092,176.695923 168.359222,181.321274 171.084259,181.903442 
	C174.082901,182.544083 175.990814,184.031967 177.409149,187.249771 
	C177.779938,188.091736 177.745605,188.514679 177.321762,188.953400 
	C174.609985,188.139267 172.285614,187.315216 169.966278,186.477188 
	C168.641968,185.998703 167.325897,185.497421 166.003357,185.003510 
	C166.000610,185.000641 165.993973,184.994507 165.993988,184.994507 
	C166.031586,183.270645 165.968613,181.537277 166.130432,179.825150 
	C166.372116,177.267990 165.865997,173.819855 167.306580,172.379044 
	C169.772568,169.912643 173.334457,170.735046 176.581390,172.972443 
z"/>
<path fill="#5EE0B4" opacity="1.000000" stroke="none" 
	d="
M177.851410,199.021423 
	C180.234055,198.170181 182.282104,197.484482 184.770966,196.651199 
	C185.531189,202.697708 179.969757,203.203445 177.754944,206.599640 
	C175.083237,206.840393 172.654449,206.815796 170.225647,206.791199 
	C172.211990,204.480499 174.180420,202.153870 176.203751,199.876007 
	C176.510818,199.530319 177.072769,199.411011 177.851410,199.021423 
z"/>
<path fill="#68ECC0" opacity="1.000000" stroke="none" 
	d="
M178.058502,196.064102 
	C175.422623,196.051010 172.669464,196.458527 170.138474,195.885239 
	C167.784073,195.351959 164.457703,194.257645 163.764755,192.527130 
	C162.981064,190.570084 164.655136,187.628845 165.627213,185.055054 
	C165.993973,184.994507 166.000610,185.000641 165.960541,185.383514 
	C164.142212,191.992264 165.617798,193.976120 172.057785,194.002014 
	C174.044495,194.010010 176.031311,193.994720 178.010910,193.995087 
	C178.003738,194.000092 178.010193,193.982025 178.006714,194.331329 
	C178.021439,195.146378 178.039642,195.612122 178.057846,196.077850 
	C178.057846,196.077850 178.038162,196.056763 178.058502,196.064102 
z"/>
<path fill="#79F9CE" opacity="1.000000" stroke="none" 
	d="
M170.112610,142.017639 
	C171.151169,142.020554 172.189728,142.023468 173.612366,142.092010 
	C172.818192,142.497894 171.639923,142.838165 170.218536,142.819977 
	C169.975418,142.461517 170.112610,142.017639 170.112610,142.017639 
z"/>
<path fill="#79F9CE" opacity="1.000000" stroke="none" 
	d="
M176.001373,142.555511 
	C176.453583,142.197769 176.912018,142.156769 177.710541,142.191101 
	C178.004883,142.952408 177.959167,143.638397 177.826599,144.658463 
	C177.162369,144.285782 176.584991,143.579010 176.001373,142.555511 
z"/>
<path fill="#FCE5B8" opacity="1.000000" stroke="none" 
	d="
M169.916962,142.047821 
	C170.112610,142.017639 169.975418,142.461517 169.898224,142.680069 
	C169.821045,142.898621 169.421463,142.742294 169.245834,142.617889 
	C169.249344,142.295685 169.466385,142.157196 169.916962,142.047821 
z"/>
<path fill="#FDFEFC" opacity="1.000000" stroke="none" 
	d="
M389.710968,332.850647 
	C390.002594,332.973724 390.057404,333.410339 390.092590,333.626068 
	C370.657196,333.895355 351.186584,333.948914 331.280884,333.515625 
	C330.282349,325.024292 329.718903,317.019806 329.503418,308.929993 
	C330.933899,308.458008 332.119293,308.240692 333.081543,307.656097 
	C337.757233,304.815369 342.373169,301.876282 347.010254,298.972015 
	C348.008057,299.035034 349.005859,299.098053 350.495239,299.483826 
	C351.686584,300.118408 352.386322,300.430298 353.086060,300.742188 
	C354.768372,300.825287 356.450653,300.908356 358.894836,301.032898 
	C361.131073,301.710144 362.605469,302.345947 364.079895,302.981781 
	C364.234924,303.540833 364.389954,304.099884 364.883606,305.046875 
	C365.410095,305.723175 365.673798,305.895966 366.013245,305.953156 
	C366.202545,306.222687 366.391815,306.492218 366.806244,306.872253 
	C368.483337,308.901672 369.935303,310.820618 371.686066,312.884491 
	C373.438934,314.321838 374.893036,315.614319 376.629700,317.085815 
	C377.427338,318.414246 377.942383,319.563629 378.765503,320.855347 
	C381.779694,323.984100 384.485809,326.970551 387.529175,330.024414 
	C388.384033,330.970398 388.901703,331.848999 389.710968,332.850647 
z"/>
<path fill="#FDFEFC" opacity="1.000000" stroke="none" 
	d="
M325.377289,333.882996 
	C303.804565,333.921448 282.231842,333.959930 260.156860,333.936035 
	C262.094299,325.326080 264.533997,316.778473 267.447937,307.953796 
	C269.844727,308.156433 271.770874,308.622009 273.689178,309.118103 
	C285.914856,312.279755 298.253326,313.925446 311.087952,312.185120 
	C315.998138,319.599670 320.687714,326.741333 325.377289,333.882996 
z"/>
<path fill="#FBFFFD" opacity="1.000000" stroke="none" 
	d="
M281.728333,178.011093 
	C288.111298,172.641876 295.689941,171.605682 303.643372,172.022293 
	C316.648468,172.703537 325.109161,181.015076 326.874359,194.860397 
	C327.313202,198.302353 327.571167,201.767380 327.945801,205.659943 
	C315.190796,204.449509 302.402313,202.800919 289.136841,200.860886 
	C288.509888,200.318817 288.306396,200.124084 288.194946,199.616928 
	C289.406799,191.151215 286.112457,184.411514 281.728333,178.011093 
z"/>
<path fill="#FCC24F" opacity="1.000000" stroke="none" 
	d="
M325.757812,333.899292 
	C320.687714,326.741333 315.998138,319.599670 310.981445,311.870880 
	C309.569916,309.462677 308.545654,307.602417 307.389709,305.827911 
	C303.926147,300.510925 300.411194,295.227478 297.315186,289.791931 
	C302.777069,289.443695 307.843933,289.300934 312.901672,289.003052 
	C316.593964,288.785614 320.274231,288.363831 323.959839,288.033142 
	C325.141998,288.381134 326.324158,288.729126 327.798065,289.606262 
	C328.445038,296.428711 328.800262,302.722046 329.155457,309.015350 
	C329.718903,317.019806 330.282349,325.024292 330.798889,333.464905 
	C329.214142,333.905884 327.676270,333.910706 325.757812,333.899292 
z"/>
<path fill="#79F9CE" opacity="1.000000" stroke="none" 
	d="
M296.916260,289.930939 
	C300.411194,295.227478 303.926147,300.510925 307.389709,305.827911 
	C308.545654,307.602417 309.569916,309.462677 310.760864,311.597961 
	C298.253326,313.925446 285.914856,312.279755 273.689178,309.118103 
	C271.770874,308.622009 269.844727,308.156433 267.537201,307.547974 
	C268.991058,300.551331 270.766876,293.664978 272.757629,286.841370 
	C272.978333,286.084930 274.460907,285.151398 275.297882,285.207092 
	C281.423004,285.614685 287.532745,286.253967 294.154053,287.167969 
	C295.412628,288.320862 296.164429,289.125916 296.916260,289.930939 
z"/>
<path fill="#74F3C8" opacity="1.000000" stroke="none" 
	d="
M210.046967,248.338821 
	C210.613739,243.376572 211.061798,238.574966 212.227188,233.954254 
	C212.916687,231.220383 212.175919,230.135345 209.750107,229.822495 
	C204.521118,229.148117 199.275742,228.600555 193.592255,228.019562 
	C193.111023,226.930054 193.074646,225.822052 193.350952,224.028992 
	C193.874374,217.377151 198.039032,211.486633 194.767593,205.795639 
	C195.876297,204.139191 197.033508,202.410294 198.409409,200.705139 
	C198.628098,200.728912 199.027130,200.914261 199.023804,201.316315 
	C199.616806,202.939499 199.987869,205.015060 200.846405,205.241394 
	C205.945404,206.585602 211.157272,207.501678 216.471710,208.590408 
	C217.085938,205.414474 217.447021,203.547485 217.740601,202.029495 
	C215.546097,200.994446 213.779144,200.161026 212.012177,199.327621 
	C215.692856,199.557968 219.373535,199.788315 223.233582,200.322296 
	C219.562408,200.873962 218.762970,203.862793 219.251495,206.576523 
	C219.494675,207.927307 222.053055,209.447723 223.795105,209.825043 
	C227.929382,210.720535 232.201447,210.979828 236.783630,211.541031 
	C237.222946,207.415298 237.640732,203.491898 238.066071,199.497406 
	C235.334488,199.636688 233.537231,199.728333 231.739975,199.819962 
	C234.856323,199.195908 237.972656,198.571854 241.383804,198.306793 
	C240.516693,202.890503 239.354782,207.115189 237.981735,212.107605 
	C244.584106,213.223145 250.442078,214.212921 256.585358,215.250900 
	C257.570953,208.800888 258.420319,203.242462 259.375793,196.989609 
	C254.840698,196.989609 251.400681,196.989609 247.960663,196.989624 
	C252.419479,195.683105 256.878296,194.376602 261.708099,193.468384 
	C263.378540,194.863831 264.539185,196.272842 266.007904,196.767868 
	C268.635162,197.653366 271.506927,197.793365 274.169708,198.598251 
	C278.290375,199.843811 280.365936,198.500153 280.990967,194.255539 
	C281.408264,191.421722 282.262207,188.652206 282.920715,185.853912 
	C283.218689,185.939529 283.516632,186.025131 283.814606,186.110748 
	C283.132782,190.532349 282.450958,194.953964 281.784027,199.278793 
	C284.406464,199.950531 286.147827,200.396591 287.945618,200.916809 
	C288.002075,200.990967 288.118591,201.136414 288.118591,201.136414 
	C288.114197,201.303345 288.109802,201.470276 287.614105,201.839966 
	C285.238739,201.883377 283.354675,201.723999 281.044556,201.528595 
	C280.345276,206.707184 279.674286,211.676071 279.003326,216.644958 
	C277.553223,218.689209 276.103119,220.733459 274.313110,222.496704 
	C272.190552,217.869110 267.969940,219.985703 265.036957,219.255463 
	C258.176056,217.547272 258.040680,218.017960 256.551239,224.884293 
	C256.031860,227.278625 255.653870,229.703384 255.151443,232.101715 
	C254.586533,234.798264 255.525681,236.228683 258.388519,236.156403 
	C256.803650,237.400696 255.218796,238.645004 253.184311,239.668869 
	C251.192093,238.366119 249.777573,236.677567 248.081985,236.319336 
	C243.636902,235.380203 239.069199,235.021347 234.186554,234.383743 
	C233.424225,240.438507 232.706680,246.137634 231.989151,251.836761 
	C230.867798,252.495209 229.746445,253.153641 227.951218,253.750092 
	C223.423477,253.154526 219.569595,252.620941 215.715729,252.087357 
	C214.540085,251.266663 213.364456,250.445953 212.470734,249.327118 
	C216.492142,249.632080 220.215576,250.497665 223.977875,250.727478 
	C225.856705,250.842224 229.214828,250.187515 229.488022,249.207397 
	C230.905777,244.121429 231.544525,238.818314 232.471542,233.493881 
	C225.550354,232.546448 219.976425,231.783432 214.414566,231.022064 
	C213.492279,237.676590 212.699432,243.397278 211.906570,249.117966 
	C211.347672,248.937149 210.788773,248.756332 210.046967,248.338821 
M242.761719,233.939682 
	C244.737549,234.097778 246.839294,233.880875 248.662689,234.493011 
	C252.315598,235.719345 253.605469,234.078903 253.949310,230.857285 
	C254.428040,226.371918 254.851990,221.880722 255.302979,217.355835 
	C251.119553,216.552887 247.270599,215.488129 243.364380,215.200150 
	C241.371918,215.053268 237.758774,215.914749 237.486954,216.983749 
	C236.215622,221.983749 235.852402,227.214661 235.162521,232.379227 
	C237.737045,232.927444 239.815948,233.370132 242.761719,233.939682 
M217.571777,229.025711 
	C222.412720,229.981003 227.253662,230.936295 232.934372,232.057297 
	C233.985291,226.118912 234.997299,220.400421 236.114853,214.085510 
	C229.932709,213.000031 224.335999,212.017334 218.349304,210.966171 
	C217.203110,216.575775 216.089417,221.704071 215.190979,226.869797 
	C215.089432,227.453720 216.201309,228.248688 217.571777,229.025711 
M207.168594,227.059860 
	C209.357086,226.761276 213.243408,226.906418 213.456375,226.091537 
	C214.763443,221.090271 215.239578,215.871841 216.073959,210.167664 
	C209.921295,209.342117 204.321945,208.590805 198.605667,207.823807 
	C197.894394,211.086990 197.385345,213.656525 196.770660,216.200500 
	C194.524139,225.498001 195.266235,226.511734 204.806229,226.997482 
	C205.302704,227.022781 205.800903,227.013947 207.168594,227.059860 
M277.500977,211.048553 
	C277.931763,209.110947 278.324615,207.163925 278.802673,205.238068 
	C279.427490,202.721024 278.809265,200.975830 276.018433,200.513306 
	C271.210602,199.716476 266.399170,198.941422 261.642914,198.165985 
	C260.480164,204.220520 259.425049,209.714661 258.231415,215.930099 
	C263.814575,216.844528 269.294312,217.823807 274.809143,218.528671 
	C275.412903,218.605850 276.582275,217.211700 276.846161,216.311447 
	C277.256592,214.911407 277.114868,213.349548 277.500977,211.048553 
z"/>
<path fill="#FCFDF8" opacity="1.000000" stroke="none" 
	d="
M227.043213,333.204254 
	C228.830475,328.531128 230.926071,324.178375 233.089111,319.473938 
	C235.599457,314.508728 238.042328,309.895142 240.831192,304.628143 
	C241.544785,306.041321 241.947723,306.839294 242.595398,307.844421 
	C245.924744,316.404022 249.009308,324.756439 252.177795,333.467346 
	C243.958298,333.725433 235.654922,333.625000 227.043213,333.204254 
z"/>
<path fill="#5CDDB1" opacity="1.000000" stroke="none" 
	d="
M258.672302,236.019806 
	C255.525681,236.228683 254.586533,234.798264 255.151443,232.101715 
	C255.653870,229.703384 256.031860,227.278625 256.551239,224.884293 
	C258.040680,218.017960 258.176056,217.547272 265.036957,219.255463 
	C267.969940,219.985703 272.190552,217.869110 273.998779,222.622986 
	C274.024323,223.030273 274.003723,223.005798 273.764221,223.115662 
	C273.354584,223.539917 273.184387,223.854294 273.014221,224.168686 
	C271.406311,225.877533 269.798431,227.586380 267.808289,229.680786 
	C267.141998,230.266724 266.967072,230.537598 266.901276,230.878952 
	C266.901276,230.878952 266.909058,230.991684 266.592834,231.005676 
	C265.511841,231.683716 264.747040,232.347733 263.982269,233.011749 
	C263.982269,233.011749 264.001434,233.007584 264.007141,232.998138 
	C262.327301,233.953537 260.641693,234.918381 258.672302,236.019806 
z"/>
<path fill="#79F9CE" opacity="1.000000" stroke="none" 
	d="
M329.503418,308.929993 
	C328.800262,302.722046 328.445038,296.428711 328.157959,289.708344 
	C334.314148,292.355194 340.402191,295.429108 346.750244,298.737549 
	C342.373169,301.876282 337.757233,304.815369 333.081543,307.656097 
	C332.119293,308.240692 330.933899,308.458008 329.503418,308.929993 
z"/>
<path fill="#E7A426" opacity="1.000000" stroke="none" 
	d="
M297.315186,289.791931 
	C296.164429,289.125916 295.412628,288.320862 294.590393,287.253143 
	C300.792969,285.951782 307.085724,285.014282 313.322968,283.793152 
	C314.646210,283.534058 317.492462,283.740387 316.061188,280.337036 
	C316.001373,279.999084 315.994171,280.012115 315.994171,280.012115 
	C318.458069,282.571075 320.921936,285.130005 323.672852,287.861053 
	C320.274231,288.363831 316.593964,288.785614 312.901672,289.003052 
	C307.843933,289.300934 302.777069,289.443695 297.315186,289.791931 
z"/>
<path fill="#FBBF53" opacity="1.000000" stroke="none" 
	d="
M339.897888,218.345078 
	C340.071991,218.871094 340.167206,219.031067 340.162872,219.188293 
	C340.098053,221.544540 340.139465,223.918884 339.781677,226.231064 
	C339.740784,226.495422 336.840271,226.965591 336.312622,226.386459 
	C334.634796,224.544846 333.062042,222.389359 332.247986,220.074127 
	C331.860687,218.972610 333.439484,215.952026 333.858490,216.003235 
	C335.880127,216.250305 337.810150,217.246964 339.897888,218.345078 
z"/>
<path fill="#FCE5B8" opacity="1.000000" stroke="none" 
	d="
M364.331665,302.807617 
	C362.605469,302.345947 361.131073,301.710144 359.316498,301.010742 
	C361.664856,296.073853 365.409302,292.211609 370.365631,289.325989 
	C369.906403,291.615967 369.447205,293.905975 368.658356,296.641174 
	C367.889343,297.731659 367.449951,298.376984 367.010559,299.022278 
	C366.201538,300.226013 365.392517,301.429749 364.331665,302.807617 
z"/>
<path fill="#5EE0B4" opacity="1.000000" stroke="none" 
	d="
M279.274231,216.500488 
	C279.674286,211.676071 280.345276,206.707184 281.044556,201.528595 
	C283.354675,201.723999 285.238739,201.883377 287.521637,202.072754 
	C285.128693,206.853867 282.336914,211.604950 279.274231,216.500488 
z"/>
<path fill="#FEE4B5" opacity="1.000000" stroke="none" 
	d="
M367.329010,298.974121 
	C367.449951,298.376984 367.889343,297.731659 368.646362,297.041748 
	C368.525146,297.640076 368.086304,298.283020 367.329010,298.974121 
z"/>
<path fill="#FCE5B8" opacity="1.000000" stroke="none" 
	d="
M352.998291,300.437286 
	C352.386322,300.430298 351.686584,300.118408 350.868774,299.516357 
	C351.470703,299.528229 352.190613,299.830292 352.998291,300.437286 
z"/>
<path fill="#ECC666" opacity="1.000000" stroke="none" 
	d="
M264.309357,232.989716 
	C264.747040,232.347733 265.511841,231.683716 266.577179,230.950317 
	C266.130646,231.576508 265.383545,232.272079 264.309357,232.989716 
z"/>
<path fill="#E7A426" opacity="1.000000" stroke="none" 
	d="
M316.008148,279.994934 
	C316.014923,279.990814 315.684540,279.833893 315.684540,279.833893 
	C315.684540,279.833893 315.847565,279.873230 315.920868,279.942688 
	C315.994171,280.012115 316.001373,279.999084 316.008148,279.994934 
z"/>
<path fill="#ECC666" opacity="1.000000" stroke="none" 
	d="
M267.140106,230.793640 
	C266.967072,230.537598 267.141998,230.266724 267.648590,229.961884 
	C267.707062,230.141052 267.542999,230.424698 267.140106,230.793640 
z"/>
<path fill="#FEE4B5" opacity="1.000000" stroke="none" 
	d="
M365.912231,305.737915 
	C365.673798,305.895966 365.410095,305.723175 365.133209,305.209473 
	C365.361572,305.075867 365.617218,305.255371 365.912231,305.737915 
z"/>
<path fill="#74F3C8" opacity="1.000000" stroke="none" 
	d="
M273.249084,224.038147 
	C273.184387,223.854294 273.354584,223.539917 273.776062,223.118744 
	C273.846222,223.310532 273.665070,223.609070 273.249084,224.038147 
z"/>
<path fill="#74F3C8" opacity="1.000000" stroke="none" 
	d="
M288.049408,199.985260 
	C288.306396,200.124084 288.509888,200.318817 288.731598,200.769104 
	C288.803314,200.968750 288.456573,201.036438 288.287598,201.086426 
	C288.118591,201.136414 288.002075,200.990967 287.985565,200.703094 
	C287.969055,200.415222 288.049408,199.985260 288.049408,199.985260 
z"/>
<path fill="#58DCB0" opacity="1.000000" stroke="none" 
	d="
M247.575439,196.970398 
	C251.400681,196.989609 254.840698,196.989609 259.375793,196.989609 
	C258.420319,203.242462 257.570953,208.800888 256.585358,215.250900 
	C250.442078,214.212921 244.584106,213.223145 237.981735,212.107605 
	C239.354782,207.115189 240.516693,202.890503 241.829041,198.325119 
	C243.716400,197.640015 245.453323,197.295593 247.575439,196.970398 
z"/>
<path fill="#5CDDB1" opacity="1.000000" stroke="none" 
	d="
M288.194946,199.616928 
	C288.049408,199.985260 287.969055,200.415222 287.929138,200.628937 
	C286.147827,200.396591 284.406464,199.950531 281.784027,199.278793 
	C282.450958,194.953964 283.132782,190.532349 283.814606,186.110748 
	C283.516632,186.025131 283.218689,185.939529 282.920715,185.853912 
	C282.262207,188.652206 281.408264,191.421722 280.990967,194.255539 
	C280.365936,198.500153 278.290375,199.843811 274.169708,198.598251 
	C271.506927,197.793365 268.635162,197.653366 266.007904,196.767868 
	C264.539185,196.272842 263.378540,194.863831 262.104736,193.488922 
	C262.130371,193.111176 262.534698,192.953857 263.027527,192.961380 
	C263.984070,192.730133 264.447754,192.491364 264.911407,192.252563 
	C268.738922,190.719681 272.640656,189.344315 276.364197,187.590668 
	C278.369812,186.646088 280.070251,185.053497 282.211700,183.538742 
	C280.902557,181.899490 279.998016,180.766891 278.949310,179.324997 
	C279.564789,178.695969 280.324493,178.376251 281.406250,178.033813 
	C286.112457,184.411514 289.406799,191.151215 288.194946,199.616928 
z"/>
<path fill="#FCC24F" opacity="1.000000" stroke="none" 
	d="
M199.386597,184.942627 
	C199.365051,177.319000 199.714005,169.637878 200.131638,161.518509 
	C205.297073,159.930649 208.220840,161.468582 210.699509,166.602951 
	C213.076401,171.526428 212.493011,177.829559 208.889313,180.328156 
	C206.122269,182.246689 202.820862,183.394562 199.386597,184.942627 
z"/>
<path fill="#58DCB0" opacity="1.000000" stroke="none" 
	d="
M231.314911,199.830750 
	C233.537231,199.728333 235.334488,199.636688 238.066071,199.497406 
	C237.640732,203.491898 237.222946,207.415298 236.783630,211.541031 
	C232.201447,210.979828 227.929382,210.720535 223.795105,209.825043 
	C222.053055,209.447723 219.494675,207.927307 219.251495,206.576523 
	C218.762970,203.862793 219.562408,200.873962 223.665955,200.378494 
	C226.242584,200.034546 228.566208,199.938049 231.314911,199.830750 
z"/>
<path fill="#5A2414" opacity="1.000000" stroke="none" 
	d="
M224.249786,134.167908 
	C229.317703,131.721176 232.989517,132.851608 235.240784,137.551697 
	C237.323364,141.899597 235.924515,146.098557 231.000061,148.102036 
	C223.735153,145.455551 221.944183,141.299698 224.249786,134.167908 
z"/>
<path fill="#5A2414" opacity="1.000000" stroke="none" 
	d="
M242.276184,131.054535 
	C244.266113,128.725357 246.951416,127.003304 249.504044,129.150925 
	C251.811249,131.092041 253.241013,134.149628 254.747696,136.885635 
	C254.961914,137.274658 253.601654,139.074936 252.662338,139.448837 
	C250.237930,140.413849 247.641190,140.945908 244.606979,141.368164 
	C243.492523,137.741776 242.884354,134.398163 242.276184,131.054535 
z"/>
<path fill="#5CDDB1" opacity="1.000000" stroke="none" 
	d="
M211.734604,199.237076 
	C213.779144,200.161026 215.546097,200.994446 217.740601,202.029495 
	C217.447021,203.547485 217.085938,205.414474 216.471710,208.590408 
	C211.157272,207.501678 205.945404,206.585602 200.846405,205.241394 
	C199.987869,205.015060 199.616806,202.939499 199.458771,201.256775 
	C203.565613,200.184448 207.234146,199.573730 210.902695,198.963013 
	C211.087463,199.024170 211.272247,199.085342 211.734604,199.237076 
z"/>
<path fill="#FBBF53" opacity="1.000000" stroke="none" 
	d="
M210.707489,198.671753 
	C207.234146,199.573730 203.565613,200.184448 199.462097,200.854706 
	C199.027130,200.914261 198.628098,200.728912 198.309082,200.470398 
	C197.875961,200.085068 197.761887,199.958267 197.646164,199.412720 
	C197.820953,197.335968 197.997375,195.677933 198.173798,194.019913 
	C202.286621,195.473434 206.399445,196.926956 210.707489,198.671753 
z"/>
<path fill="#FCFDF8" opacity="1.000000" stroke="none" 
	d="
M223.881226,134.227142 
	C221.944183,141.299698 223.735153,145.455551 230.630508,148.215088 
	C228.015900,150.526215 223.251373,149.079559 221.816666,145.109787 
	C220.461273,141.359451 220.107635,137.443802 223.881226,134.227142 
z"/>
<path fill="#14583B" opacity="1.000000" stroke="none" 
	d="
M198.097839,193.719528 
	C197.997375,195.677933 197.820953,197.335968 197.298706,199.537140 
	C195.001846,199.306366 193.050766,198.532425 191.099701,197.758469 
	C193.146103,195.700241 195.192505,193.641998 197.564240,191.580841 
	C197.933701,192.191666 197.977783,192.805405 198.097839,193.719528 
z"/>
<path fill="#ECC666" opacity="1.000000" stroke="none" 
	d="
M241.216614,126.948166 
	C240.573166,125.697556 240.347672,124.472198 240.122162,123.246834 
	C243.685532,123.175369 247.438782,121.969620 251.829544,125.332138 
	C247.610977,126.011276 244.622757,126.492348 241.216614,126.948166 
z"/>
<path fill="#FBBF53" opacity="1.000000" stroke="none" 
	d="
M222.774979,130.926605 
	C220.790024,130.932724 219.217102,130.932724 217.644180,130.932724 
	C217.543777,130.457809 217.443390,129.982910 217.343002,129.507996 
	C220.587601,128.264542 223.832184,127.021095 227.567352,125.589638 
	C227.945267,129.931854 225.954590,130.802948 222.774979,130.926605 
z"/>
<path fill="#FCFDF8" opacity="1.000000" stroke="none" 
	d="
M241.925873,131.169067 
	C242.884354,134.398163 243.492523,137.741776 244.243393,141.429230 
	C242.854340,140.945877 240.046188,140.145264 240.028305,139.286591 
	C239.973022,136.630814 240.980652,133.952911 241.925873,131.169067 
z"/>
<path fill="#5EE0B4" opacity="1.000000" stroke="none" 
	d="
M264.639069,192.224808 
	C264.447754,192.491364 263.984070,192.730133 263.244446,192.963409 
	C263.434570,192.704285 263.900665,192.450668 264.639069,192.224808 
z"/>
<path fill="#FDDA99" opacity="1.000000" stroke="none" 
	d="
M236.920609,302.093628 
	C236.776016,301.025970 236.714066,300.272308 236.652130,299.518677 
	C237.396500,299.695465 238.702637,299.742065 238.779434,300.073486 
	C239.005936,301.051056 238.745728,302.141357 238.675995,303.187561 
	C238.118408,302.927612 237.560837,302.667664 236.920609,302.093628 
z"/>
<path fill="#5CDDB1" opacity="1.000000" stroke="none" 
	d="
M232.346649,251.786224 
	C232.706680,246.137634 233.424225,240.438507 234.186554,234.383743 
	C239.069199,235.021347 243.636902,235.380203 248.081985,236.319336 
	C249.777573,236.677567 251.192093,238.366119 252.873047,239.796005 
	C246.242310,244.007629 239.473236,247.871658 232.346649,251.786224 
z"/>
<path fill="#5EE0B4" opacity="1.000000" stroke="none" 
	d="
M215.914383,252.392792 
	C219.569595,252.620941 223.423477,253.154526 227.641174,253.847473 
	C223.588867,257.679749 219.799362,255.657791 215.914383,252.392792 
z"/>
<path fill="#FDDA99" opacity="1.000000" stroke="none" 
	d="
M246.989014,248.008484 
	C246.858627,247.861053 246.739487,247.704285 246.620346,247.547531 
	C246.716324,247.594009 246.812286,247.640488 246.963608,247.831635 
	C247.018967,247.976303 247.000290,247.999130 246.989014,248.008484 
z"/>
<path fill="#5EE0B4" opacity="1.000000" stroke="none" 
	d="
M191.089661,198.216736 
	C193.050766,198.532425 195.001846,199.306366 197.300354,199.955872 
	C197.761887,199.958267 197.875961,200.085068 198.090393,200.446625 
	C197.033508,202.410294 195.876297,204.139191 194.767593,205.795639 
	C198.039032,211.486633 193.874374,217.377151 193.413940,223.617188 
	C192.469345,215.485306 191.774475,207.080154 191.089661,198.216736 
z"/>
<path fill="#79F9CE" opacity="1.000000" stroke="none" 
	d="
M178.470001,196.041351 
	C178.039642,195.612122 178.021439,195.146378 178.427490,194.348877 
	C180.431549,193.927902 182.011383,193.838730 183.900162,193.732101 
	C183.183411,190.260605 182.544571,187.166473 181.905731,184.072327 
	C181.905731,184.072327 182.056931,183.950043 182.133911,183.885498 
	C183.571381,187.171265 184.931854,190.521591 186.689301,194.849503 
	C183.455826,195.328018 181.169006,195.666443 178.470001,196.041351 
z"/>
<path fill="#F9FFFD" opacity="1.000000" stroke="none" 
	d="
M181.612045,183.913971 
	C182.544571,187.166473 183.183411,190.260605 183.900162,193.732101 
	C182.011383,193.838730 180.431549,193.927902 178.430954,193.999557 
	C178.010193,193.982025 178.003738,194.000092 177.978333,193.574402 
	C177.872375,191.745026 177.791840,190.341339 177.711273,188.937637 
	C177.745605,188.514679 177.779938,188.091736 177.741180,187.357452 
	C177.841278,184.666153 178.014496,182.286148 178.242264,179.156647 
	C179.550568,181.112640 180.434464,182.434128 181.612045,183.913971 
z"/>
<path fill="#79F9CE" opacity="1.000000" stroke="none" 
	d="
M177.321777,188.953400 
	C177.791840,190.341339 177.872375,191.745026 177.985504,193.569412 
	C176.031311,193.994720 174.044495,194.010010 172.057785,194.002014 
	C165.617798,193.976120 164.142212,191.992264 165.963287,185.386398 
	C167.325897,185.497421 168.641968,185.998703 169.966278,186.477188 
	C172.285614,187.315216 174.609985,188.139267 177.321777,188.953400 
z"/>
<path fill="#58DCB0" opacity="1.000000" stroke="none" 
	d="
M242.328278,233.876251 
	C239.815948,233.370132 237.737045,232.927444 235.162521,232.379227 
	C235.852402,227.214661 236.215622,221.983749 237.486954,216.983749 
	C237.758774,215.914749 241.371918,215.053268 243.364380,215.200150 
	C247.270599,215.488129 251.119553,216.552887 255.302979,217.355835 
	C254.851990,221.880722 254.428040,226.371918 253.949310,230.857285 
	C253.605469,234.078903 252.315598,235.719345 248.662689,234.493011 
	C246.839294,233.880875 244.737549,234.097778 242.328278,233.876251 
z"/>
<path fill="#58DCB0" opacity="1.000000" stroke="none" 
	d="
M217.161148,228.985748 
	C216.201309,228.248688 215.089432,227.453720 215.190979,226.869797 
	C216.089417,221.704071 217.203110,216.575775 218.349304,210.966171 
	C224.335999,212.017334 229.932709,213.000031 236.114853,214.085510 
	C234.997299,220.400421 233.985291,226.118912 232.934372,232.057297 
	C227.253662,230.936295 222.412720,229.981003 217.161148,228.985748 
z"/>
<path fill="#58DCB0" opacity="1.000000" stroke="none" 
	d="
M206.733459,227.040421 
	C205.800903,227.013947 205.302704,227.022781 204.806229,226.997482 
	C195.266235,226.511734 194.524139,225.498001 196.770660,216.200500 
	C197.385345,213.656525 197.894394,211.086990 198.605667,207.823807 
	C204.321945,208.590805 209.921295,209.342117 216.073959,210.167664 
	C215.239578,215.871841 214.763443,221.090271 213.456375,226.091537 
	C213.243408,226.906418 209.357086,226.761276 206.733459,227.040421 
z"/>
<path fill="#58DCB0" opacity="1.000000" stroke="none" 
	d="
M277.354065,211.452408 
	C277.114868,213.349548 277.256592,214.911407 276.846161,216.311447 
	C276.582275,217.211700 275.412903,218.605850 274.809143,218.528671 
	C269.294312,217.823807 263.814575,216.844528 258.231415,215.930099 
	C259.425049,209.714661 260.480164,204.220520 261.642914,198.165985 
	C266.399170,198.941422 271.210602,199.716476 276.018433,200.513306 
	C278.809265,200.975830 279.427490,202.721024 278.802673,205.238068 
	C278.324615,207.163925 277.931763,209.110947 277.354065,211.452408 
z"/>
<path fill="#58DCB0" opacity="1.000000" stroke="none" 
	d="
M211.943542,249.057159 
	C212.699432,243.397278 213.492279,237.676590 214.414566,231.022064 
	C219.976425,231.783432 225.550354,232.546448 232.471542,233.493881 
	C231.544525,238.818314 230.905777,244.121429 229.488022,249.207397 
	C229.214828,250.187515 225.856705,250.842224 223.977875,250.727478 
	C220.215576,250.497665 216.492142,249.632080 212.313721,249.061157 
	C211.874786,249.093338 211.980499,248.996368 211.943542,249.057159 
z"/>
</svg>